<?xml version="1.0" standalone="no"?>
<!DOCTYPE svg PUBLIC "-//W3C//DTD SVG 20010904//EN"
 "http://www.w3.org/TR/2001/REC-SVG-20010904/DTD/svg10.dtd">
<svg version="1.0" xmlns="http://www.w3.org/2000/svg"
 width="810.000000pt" height="810.000000pt" viewBox="0 0 810.000000 810.000000"
 preserveAspectRatio="xMidYMid meet">
<metadata>
Created by potrace 1.11, written by Peter Selinger 2001-2013
</metadata>
<g transform="translate(0.000000,810.000000) scale(0.100000,-0.100000)"
fill="#000000" stroke="none">
<path d="M2765 7198 c-60 -156 -148 -386 -196 -511 l-87 -228 71 3 71 3 46
130 47 130 215 3 215 2 49 -135 49 -135 68 0 c61 0 68 2 63 18 -4 9 -91 238
-194 507 l-187 490 -61 3 -61 3 -108 -283z m259 -130 l84 -228 -175 0 c-163 0
-175 1 -168 18 4 9 40 109 81 222 91 251 85 237 90 225 2 -5 42 -112 88 -237z"/>
<path d="M4950 6970 l0 -510 65 0 65 0 0 225 0 225 215 0 215 0 0 55 0 55
-212 2 -213 3 -3 173 -2 172 250 0 250 0 0 55 0 55 -315 0 -315 0 0 -510z"/>
<path d="M5102 5795 c-105 -29 -165 -72 -222 -157 -68 -102 -85 -176 -85 -363
1 -140 4 -168 24 -225 51 -147 133 -233 259 -275 84 -27 229 -18 305 20 103
51 181 157 212 287 20 84 20 312 0 396 -34 142 -127 259 -241 301 -74 28 -184
35 -252 16z m219 -132 c64 -33 111 -91 135 -166 25 -80 31 -296 9 -391 -30
-139 -113 -222 -232 -233 -106 -9 -184 26 -240 110 -40 59 -51 96 -64 212 -20
169 17 342 89 419 73 77 204 99 303 49z"/>
<path d="M2510 5281 l0 -511 70 0 70 0 0 205 0 206 121 -3 120 -3 108 -200
108 -200 72 -3 c39 -2 71 0 71 4 0 4 -52 100 -115 215 -63 114 -115 212 -115
216 0 4 23 20 50 35 120 67 172 237 115 375 -22 53 -89 118 -149 145 -48 21
-66 23 -288 26 l-238 4 0 -511z m455 380 c73 -34 105 -85 105 -171 0 -85 -30
-134 -105 -173 -33 -17 -64 -21 -177 -25 l-138 -5 0 197 0 196 138 0 c112 0
144 -4 177 -19z"/>
<path d="M50 2050 l0 -2000 4000 0 4000 0 0 2000 0 2000 -1264 0 -1265 0 -3
-367 c-3 -363 -3 -369 -27 -421 -35 -79 -115 -146 -202 -173 -98 -30 -240 -24
-319 12 -77 36 -124 80 -157 147 l-28 57 -3 373 -3 372 -1024 0 -1025 0 0
-430 0 -430 245 0 245 0 0 -55 0 -55 -315 0 -315 0 0 485 0 485 -1270 0 -1270
0 0 -2000z m2800 -32 c89 -222 165 -406 169 -411 4 -4 81 177 171 403 l164
410 88 0 88 0 0 -510 0 -510 -66 0 -66 0 3 410 c2 226 3 407 1 403 -1 -5 -76
-188 -165 -408 l-162 -400 -54 0 -54 0 -159 390 c-87 214 -160 394 -162 400
-3 5 -2 -171 1 -392 l6 -403 -71 0 -72 0 0 510 0 510 89 0 88 0 163 -402z
m1420 -108 l0 -510 -65 0 -65 0 0 510 0 510 65 0 65 0 0 -510z m1025 493 c3
-10 90 -236 192 -503 102 -267 187 -489 190 -493 3 -4 -28 -7 -68 -5 l-73 3
-47 130 -47 130 -215 3 -215 2 -47 -135 -48 -135 -69 0 c-52 0 -69 3 -66 13 3
6 90 236 194 509 l189 498 61 0 c50 0 63 -3 69 -17z"/>
<path d="M5141 2019 c-46 -126 -82 -232 -79 -235 3 -2 80 -3 171 -2 l165 3
-83 228 c-45 125 -85 230 -87 232 -2 2 -41 -99 -87 -226z"/>
<path d="M4910 3718 c0 -347 5 -400 43 -456 68 -100 289 -113 374 -21 51 56
53 72 53 454 l0 355 -235 0 -235 0 0 -332z"/>
</g>
</svg>
